<?xml version="1.0" encoding="UTF-8" standalone="no"?>
<svg
   xmlns:dc="http://purl.org/dc/elements/1.1/"
   xmlns:cc="http://creativecommons.org/ns#"
   xmlns:rdf="http://www.w3.org/1999/02/22-rdf-syntax-ns#"
   xmlns:svg="http://www.w3.org/2000/svg"
   xmlns="http://www.w3.org/2000/svg"
   xml:space="preserve"
   style="enable-background:new 0 0 111 111;"
   viewBox="0 0 111 111"
   y="0px"
   x="0px"
   id="Camada_1"
   version="1.0"><metadata
   id="metadata46"><rdf:RDF><cc:Work
       rdf:about=""><dc:format>image/svg+xml</dc:format><dc:type
         rdf:resource="http://purl.org/dc/dcmitype/StillImage" /><dc:title></dc:title></cc:Work></rdf:RDF></metadata><defs
   id="defs44" />
<style
   id="style2"
   type="text/css">
	.st0{fill:#F2EEDF;}
	.st1{fill:#ED1C24;}
	.st2{fill:#939598;}
</style>
<rect
   id="rect4"
   height="111"
   width="111"
   class="st0"
   y="0" />
<g
   id="g39">
	<g
   transform="translate(-73.986878,0.37499779)"
   id="g911_2_">
		<path
   d="M74.9,18.6c-0.6,6-0.5,11.9-0.1,17.4    c5.4-1.2,7.4-0.4,9.4,2.7c2,3.1,3.9,8.7,9.2,16.1c-4.4-14.2-3-21.6-0.3-26.4c2.7-4.7,6.7-6.9,8.2-10.2c1.5-3.4,0.3-8.1-7.5-18.3    c1.2,5.4,0.4,7.4-2.7,9.4C87.9,11.4,82.2,13.3,74.9,18.6z"
   class="st1"
   id="path2_2_" />
		<path
   d="M93.4,54.9c6,0.6,11.9,0.5,17.4,0.1    c-1.2-5.4-0.4-7.5,2.7-9.4c3.1-2,8.7-4,16.1-9.2c-14.2,4.4-21.6,3.1-26.4,0.4c-4.7-2.7-6.9-6.8-10.2-8.2c-3.4-1.4-8-0.3-18.3,7.5    c5.4-1.1,7.4-0.4,9.4,2.8C86.2,41.9,88.1,47.5,93.4,54.9L93.4,54.9z"
   class="st2"
   id="path4_2_" />
		<path
   d="M129.6,36.3c0.6-5.9,0.5-11.9,0.1-17.4    c-5.4,1.2-7.5,0.4-9.4-2.8c-2-3.1-4-8.7-9.2-16.1c4.4,14.2,3.1,21.7,0.4,26.4c-2.7,4.8-6.7,6.9-8.2,10.2c-1.4,3.4-0.2,8,7.5,18.3    c-1.1-5.4-0.4-7.5,2.8-9.4C116.7,43.6,122.3,41.6,129.6,36.3z"
   class="st1"
   id="path6_2_" />
		<path
   d="M111.1,0C105.2-0.5,99.2-0.4,93.7,0    c7.8,10.2,9,14.9,7.5,18.3c4.8,2.7,6.9,6.7,10.2,8.2c3.4,1.4,8,0.3,18.3-7.5c-5.4,1.2-7.5,0.4-9.4-2.8C118.3,13,116.3,7.4,111.1,0    L111.1,0z"
   class="st2"
   id="path8_2_" />
		<path
   d="M184.5,36.8c0.6-6,0.5-11.9,0.1-17.4    c-5.4,1.2-7.4,0.4-9.4-2.7c-2-3.1-3.9-8.7-9.2-16.1c4.4,14.2,3,21.6,0.3,26.4c-2.7,4.7-6.7,6.9-8.2,10.2c-1.5,3.4-0.3,8,7.5,18.3    c-1.2-5.4-0.4-7.4,2.7-9.4C171.6,44,177.2,42.1,184.5,36.8L184.5,36.8z"
   class="st1"
   id="path10_2_" />
		<path
   d="M166.1,0.5c-6-0.6-11.9-0.5-17.4-0.1    c1.2,5.4,0.4,7.5-2.7,9.4c-3.1,2-8.7,4-16.1,9.2c14.2-4.4,21.6-3.1,26.4-0.4c4.7,2.7,6.9,6.8,10.2,8.2c3.4,1.4,8,0.2,18.3-7.5    c-5.4,1.1-7.4,0.4-9.4-2.8C173.2,13.5,171.3,7.9,166.1,0.5L166.1,0.5z"
   class="st2"
   id="path12_2_" />
		<path
   d="M129.8,19c-0.6,6-0.5,11.9-0.1,17.4    c5.4-1.2,7.5-0.4,9.4,2.8c2,3.1,3.9,8.7,9.2,16.1c-4.4-14.2-3.1-21.6-0.4-26.4c2.7-4.8,6.7-6.9,8.2-10.2c1.4-3.4,0.2-8-7.5-18.3    c1.1,5.4,0.4,7.5-2.8,9.4C142.8,11.8,137.1,13.8,129.8,19L129.8,19z"
   class="st1"
   id="path14_2_" />
		<path
   d="M148.3,55.3c5.9,0.6,11.9,0.5,17.4,0.1    c-7.8-10.3-9-14.9-7.5-18.3c-4.8-2.7-6.9-6.7-10.2-8.2c-3.4-1.4-8-0.3-18.3,7.5c5.4-1.2,7.5-0.4,9.4,2.8    C141.1,42.4,143,48,148.3,55.3L148.3,55.3z"
   class="st2"
   id="path16_2_" />
		<path
   d="M74.4,73.5c-0.6,5.9-0.4,11.9-0.1,17.4    c5.4-1.2,7.4-0.4,9.4,2.7c2.1,3.1,4,8.7,9.2,16.1c-4.4-14.2-3-21.6-0.3-26.4c2.7-4.8,6.7-6.9,8.2-10.2c1.4-3.4,0.3-8-7.5-18.3    c1.1,5.4,0.4,7.5-2.8,9.4C87.4,66.3,81.7,68.3,74.4,73.5z"
   class="st1"
   id="path18_2_" />
		<path
   d="M92.9,109.7c5.9,0.6,11.9,0.5,17.4,0.1    c-1.1-5.4-0.4-7.4,2.8-9.4c3.1-2,8.7-3.9,16.1-9.2c-14.2,4.4-21.6,3-26.4,0.3c-4.7-2.7-6.9-6.7-10.2-8.2    c-3.4-1.4-8.1-0.3-18.3,7.5c5.4-1.2,7.4-0.4,9.4,2.7C85.7,96.7,87.7,102.4,92.9,109.7L92.9,109.7z"
   class="st2"
   id="path20_2_" />
		<path
   d="M129.2,91.2c0.6-6,0.4-11.9,0.1-17.4    c-5.4,1.2-7.5,0.4-9.4-2.7c-2-3.1-4-8.7-9.2-16.1c4.4,14.2,3.1,21.6,0.4,26.4c-2.7,4.7-6.8,6.9-8.2,10.2c-1.4,3.4-0.3,8,7.5,18.3    c-1.1-5.4-0.4-7.4,2.8-9.4C116.2,98.4,121.8,96.5,129.2,91.2z"
   class="st1"
   id="path22_2_" />
		<path
   d="M110.7,54.9c-5.9-0.6-11.9-0.5-17.4-0.1    c7.8,10.3,8.9,14.9,7.5,18.3c4.8,2.7,6.9,6.7,10.2,8.2c3.4,1.4,8,0.2,18.3-7.5c-5.4,1.1-7.5,0.4-9.4-2.8    C117.9,67.9,115.9,62.3,110.7,54.9L110.7,54.9z"
   class="st2"
   id="path24_2_" />
		<path
   d="M184.1,91.7c0.6-5.9,0.5-11.9,0.1-17.4    c-5.4,1.1-7.5,0.4-9.4-2.8c-2-3.1-4-8.7-9.2-16.1c4.4,14.2,3.1,21.7,0.4,26.4c-2.7,4.7-6.8,6.9-8.2,10.2s-0.3,8,7.5,18.3    c-1.1-5.4-0.4-7.5,2.8-9.5C171.1,98.9,176.7,96.9,184.1,91.7z"
   class="st1"
   id="path26_2_" />
		<path
   d="M165.6,55.4c-5.9-0.6-11.9-0.4-17.4-0.1    c1.2,5.4,0.4,7.5-2.8,9.5c-3.1,2-8.7,3.9-16.1,9.2c14.2-4.4,21.7-3,26.4-0.3c4.8,2.7,6.9,6.7,10.2,8.2c3.4,1.4,8,0.3,18.3-7.5    c-5.4,1.1-7.5,0.4-9.4-2.8C172.8,68.4,170.8,62.8,165.6,55.4L165.6,55.4z"
   class="st2"
   id="path28_2_" />
		<path
   d="M129.3,74c-0.6,5.9-0.4,11.9-0.1,17.3    c5.4-1.1,7.4-0.4,9.4,2.8c2.1,3.1,4,8.7,9.2,16.1c-4.4-14.2-3-21.7-0.3-26.4c2.7-4.7,6.7-6.9,8.2-10.2c1.4-3.4,0.3-8.1-7.5-18.4    c1.2,5.4,0.4,7.5-2.8,9.5C142.3,66.8,136.6,68.7,129.3,74L129.3,74z"
   class="st1"
   id="path30_2_" />
		<path
   d="M147.8,110.2c6,0.6,11.9,0.4,17.4,0.1    c-7.9-10.3-9-15-7.5-18.3c-4.8-2.7-6.9-6.8-10.2-8.2c-3.4-1.4-8.1-0.3-18.3,7.5c5.4-1.1,7.4-0.4,9.4,2.8    C140.6,97.2,142.6,102.9,147.8,110.2z"
   class="st2"
   id="path32_2_" />
	</g>
	<polygon
   id="polygon23"
   points="18.3,109.3 19.5,111 36.8,111 35.9,109.7  "
   class="st2" />
	<polygon
   id="polygon25"
   points="20,0.6 19.5,0 36.8,0 37.2,0.6  "
   class="st2" />
	<polygon
   id="polygon27"
   points="74.9,1 74,0 91.7,0 92.8,2.1  "
   class="st2" />
	<polygon
   id="polygon29"
   points="73.7,110.4 74.1,111 91.7,111 91,110.4  "
   class="st2" />
	<polygon
   id="polygon31"
   points="0.9,18.9 0,19.8 0,36.9 0.8,36.3 1.9,20.7  "
   class="st1" />
	<polygon
   id="polygon33"
   points="109.9,75 111,73.9 111,91.5 108.9,92.9  "
   class="st1" />
	<polygon
   id="polygon35"
   points="110.2,20.2 111,19.7 111,36.9 110.2,37.4  "
   class="st1" />
	<polygon
   id="polygon37"
   points="0,73.9 0,91.5 0.9,90.8 1.1,73.4  "
   class="st1" />
</g>
</svg>