<?xml version="1.0" encoding="utf-8"?>
<!-- Generator: Adobe Illustrator 22.0.1, SVG Export Plug-In . SVG Version: 6.00 Build 0)  -->
<svg version="1.1" id="Camada_1" xmlns="http://www.w3.org/2000/svg" xmlns:xlink="http://www.w3.org/1999/xlink" x="0px" y="0px"
	 viewBox="0 0 223.2 152.3" style="enable-background:new 0 0 223.2 152.3;" xml:space="preserve">
<style type="text/css">
	.st0{fill:#1A1A1A;}
	.st1{enable-background:new    ;}
	.st2{fill:#FFFFFF;}
</style>
<g>
	<rect x="-0.1" y="-0.2" class="st0" width="223.2" height="43.2"/>
	<rect x="-0.2" y="55" class="st0" width="223.2" height="42.6"/>
	<g>
		<g class="st1">
			<path class="st2" d="M26.3,13.2L25.5,17l-0.4,0.2c-0.6-0.4-1.2-0.7-1.9-0.9C22.5,16.1,21.7,16,21,16c-1.5,0-2.6,0.4-3.3,1.3
				c-0.7,0.9-1.1,2.2-1.1,4c0,4,1.5,5.9,4.6,5.9c0.7,0,1.5-0.1,2.2-0.3c0.8-0.2,1.5-0.5,2.1-0.8l0.4,0.2l-0.4,3.8
				c-1.4,0.6-3,0.9-4.6,0.9c-3,0-5.2-0.8-6.7-2.4c-1.5-1.6-2.3-3.9-2.3-6.8c0-3,0.8-5.4,2.4-7c1.6-1.7,3.9-2.5,6.9-2.5
				C23.1,12.2,24.8,12.6,26.3,13.2z"/>
			<path class="st2" d="M43.8,14.5c1.5,1.6,2.2,3.8,2.2,6.6c0,3.1-0.8,5.5-2.4,7.3S39.7,31,36.8,31c-2.7,0-4.8-0.8-6.3-2.4
				c-1.5-1.6-2.2-3.8-2.2-6.8c0-3.1,0.8-5.4,2.4-7.1c1.6-1.7,3.9-2.5,6.8-2.5C40.2,12.2,42.3,13,43.8,14.5z M33.9,17.1
				c-0.6,0.8-1,2.2-1,4.2c0,1.6,0.1,2.8,0.4,3.7s0.7,1.5,1.3,1.9c0.6,0.4,1.4,0.6,2.5,0.6c1.5,0,2.6-0.4,3.2-1.2
				c0.6-0.8,1-2.2,1-4.2c0-1.6-0.1-2.8-0.4-3.7s-0.7-1.5-1.3-1.9c-0.6-0.4-1.4-0.6-2.5-0.6C35.6,15.9,34.5,16.3,33.9,17.1z"/>
			<path class="st2" d="M70.2,30.7h-4.1l-0.3-5.5l-0.6-5.9H65l-4,9.6h-3.5L54,19.2h-0.3L53,24.7l-0.4,5.9h-3.9l1.9-18.2h5.3l0.7,2.7
				l2.6,7.7h0.3l2.8-7.7l0.8-2.7h5.2L70.2,30.7z"/>
			<path class="st2" d="M87.1,13.9c1.1,1,1.7,2.4,1.7,4.2c0,2.1-0.7,3.8-2.2,5.1c-1.5,1.3-3.4,1.9-5.9,1.9h-1.8l0.2,5.6h-4.5
				l0.2-5.4l-0.2-12.8l7.8,0C84.4,12.5,86,12.9,87.1,13.9z M83.4,20.7c0.4-0.5,0.6-1.2,0.6-2.1c0-0.9-0.3-1.6-0.8-2.1
				s-1.3-0.7-2.4-0.8l-1.8,0.1L79,21.7l2.6,0.1C82.4,21.6,83,21.2,83.4,20.7z"/>
			<path class="st2" d="M103.2,27.3l-0.3,3.4H92.2l0.2-5.4l-0.2-12.8h4.6l-0.3,12.3l0.1,2.1h6.3L103.2,27.3z"/>
			<path class="st2" d="M118.8,27l0.3,0.3l-0.3,3.4h-12.5l0.2-5.4l-0.2-12.8h12.6l0.3,0.4l-0.3,3.3l-4.7-0.2h-3.4l-0.1,3.7l3.2,0
				l3.1-0.1l0.3,0.3l-0.3,3.4l-3.4-0.1h-3l0,1.6l0.1,2.3h3.2L118.8,27z"/>
			<path class="st2" d="M132.6,21.1l6.1,9.6h-5.4l-0.9-2l-2.8-4l-3.2,4.3l-0.9,1.7h-4.6l6-8.9l-6.1-9.3h5.5l0.9,2l2.7,3.8l2.8-4
				l0.9-1.8h4.8L132.6,21.1z"/>
			<path class="st2" d="M155.4,14.5c1.5,1.6,2.2,3.8,2.2,6.6c0,3.1-0.8,5.5-2.4,7.3s-3.9,2.6-6.9,2.6c-2.7,0-4.8-0.8-6.3-2.4
				c-1.5-1.6-2.2-3.8-2.2-6.8c0-3.1,0.8-5.4,2.4-7.1c1.6-1.7,3.9-2.5,6.8-2.5C151.8,12.2,153.9,13,155.4,14.5z M145.5,17.1
				c-0.6,0.8-1,2.2-1,4.2c0,1.6,0.1,2.8,0.4,3.7c0.3,0.9,0.7,1.5,1.3,1.9c0.6,0.4,1.4,0.6,2.5,0.6c1.5,0,2.6-0.4,3.2-1.2
				c0.6-0.8,1-2.2,1-4.2c0-1.6-0.1-2.8-0.4-3.7s-0.7-1.5-1.3-1.9s-1.4-0.6-2.5-0.6C147.2,15.9,146.1,16.3,145.5,17.1z"/>
			<path class="st2" d="M181.3,14.6c1.5,1.5,2.3,3.6,2.3,6.3c0,3.2-0.8,5.7-2.5,7.4c-1.7,1.7-4.1,2.6-7.3,2.6
				c-1.8,0-4.1-0.1-6.9-0.2l0.2-5.4l-0.2-12.8l8-0.1C177.6,12.4,179.8,13.1,181.3,14.6z M178.9,22c0-2.1-0.3-3.7-1-4.6
				c-0.7-0.9-1.8-1.4-3.3-1.4c-1.1,0-2.2,0-3.1,0.1l-0.2,8.7l0.1,2.3c0.6,0.1,1.2,0.1,1.8,0.2c0.6,0,1.1,0.1,1.5,0.1
				C177.4,27.4,178.9,25.6,178.9,22z"/>
			<path class="st2" d="M199.7,27l0.3,0.3l-0.3,3.4h-12.5l0.2-5.4l-0.2-12.8h12.6l0.3,0.4l-0.3,3.3l-4.7-0.2h-3.4l-0.1,3.7l3.2,0
				l3.1-0.1l0.3,0.3l-0.3,3.4l-3.4-0.1h-3l0,1.6l0.1,2.3h3.2L199.7,27z"/>
		</g>
	</g>
	<g class="st1">
		<path class="st2" d="M16.3,70.9l-0.1,4.3l2.5,0l3.3-0.1l0.3,0.3L22,78.8l-3.7-0.1l-2.2,0l0,1l0.2,5.8h-4.5l0.2-5.4l-0.2-12.8h11.9
			l0.3,0.4l-0.3,3.3l-4.6-0.2H16.3z"/>
		<path class="st2" d="M40.7,69.4c1.5,1.6,2.2,3.8,2.2,6.6c0,3.1-0.8,5.5-2.4,7.3s-3.9,2.6-6.9,2.6c-2.7,0-4.8-0.8-6.3-2.4
			c-1.5-1.6-2.2-3.8-2.2-6.7c0-3.1,0.8-5.4,2.4-7.1c1.6-1.7,3.9-2.5,6.8-2.5C37.1,67.1,39.2,67.9,40.7,69.4z M30.7,72
			c-0.6,0.8-1,2.2-1,4.2c0,1.6,0.1,2.8,0.4,3.7s0.7,1.5,1.3,1.9c0.6,0.4,1.4,0.6,2.5,0.6c1.5,0,2.6-0.4,3.2-1.2c0.6-0.8,1-2.2,1-4.2
			c0-1.6-0.1-2.8-0.4-3.7s-0.7-1.5-1.3-1.9c-0.6-0.4-1.4-0.6-2.5-0.6C32.4,70.7,31.4,71.1,30.7,72z"/>
		<path class="st2" d="M61.8,84.5l0,0.5c-1.5,0.5-3,0.7-4.4,0.8l-0.6-0.4c-1.3-2.3-2.4-4.2-3.1-5.7h-2.8v0l0.2,5.8h-4.5l0.2-5.4
			l-0.2-12.8l7.8,0c2,0,3.6,0.5,4.7,1.4c1.1,0.9,1.7,2.3,1.7,4c0,1.1-0.3,2.2-0.9,3.2c-0.6,1-1.4,1.8-2.5,2.4
			C58.9,80.7,60.4,82.7,61.8,84.5z M50.9,76.2l2.7,0.1c0.8-0.3,1.4-0.6,1.8-1.2c0.4-0.5,0.6-1.2,0.6-1.9c0-0.9-0.3-1.5-0.8-1.9
			s-1.3-0.7-2.4-0.7L51,70.7L50.9,76.2z"/>
		<path class="st2" d="M85.8,85.5h-4.1L81.4,80l-0.6-5.9h-0.3l-4,9.6h-3.5l-3.6-9.6h-0.3l-0.6,5.5l-0.4,5.9h-3.9l1.9-18.2h5.3
			l0.7,2.7l2.6,7.7h0.3l2.8-7.7l0.8-2.7h5.2L85.8,85.5z"/>
		<path class="st2" d="M105.6,85.5H101l-0.5-2.6l-0.3-1l-3.7,0l-3.2,0.1L93,82.7l-0.5,2.9H88l6.4-18.2h5.4L105.6,85.5z M99.2,78.4
			l-2.1-6.9h-0.3l-2.4,6.9l2.3,0L99.2,78.4z"/>
		<path class="st2" d="M118.6,81.8c0.8-0.2,1.5-0.5,2.1-0.8l0.4,0.2l-0.4,3.8c-1.2,0.5-2.6,0.8-4.1,0.9l-0.4,1.4l1.2,0.7
			c0.5,0.3,0.9,0.6,1.1,1c0.2,0.3,0.3,0.7,0.3,1.2c0,0.8-0.3,1.4-0.9,1.9c-0.6,0.5-1.4,0.8-2.4,0.8c-1.1,0-2.1-0.3-3-1l0.3-2
			l0.2-0.1c0.7,0.7,1.4,1.1,2.1,1.1c0.6,0,0.9-0.3,0.9-0.8c0-0.2,0-0.3-0.1-0.4c-0.1-0.1-0.3-0.2-0.5-0.3l-1.8-1l0.6-2.5
			c-2.4-0.3-4.2-1.2-5.5-2.8c-1.2-1.5-1.9-3.7-1.9-6.4c0-3,0.8-5.4,2.4-7c1.6-1.7,3.9-2.5,6.9-2.5c1.8,0,3.5,0.3,5,0.9l-0.8,3.8
			l-0.4,0.2c-0.6-0.4-1.2-0.7-1.9-0.9c-0.7-0.2-1.5-0.3-2.2-0.3c-1.5,0-2.6,0.4-3.3,1.3c-0.7,0.9-1.1,2.2-1.1,4c0,4,1.5,5.9,4.6,5.9
			C117.1,82,117.8,82,118.6,81.8z"/>
		<path class="st2" d="M140.2,85.5h-4.6l-0.5-2.6l-0.3-1l-3.7,0l-3.2,0.1l-0.3,0.8l-0.5,2.9h-4.4l6.4-18.2h5.4L140.2,85.5z
			 M126.9,64.6l-1.4-1.4v-0.4l2.6-3.2l0.4-0.2c0.6,0.1,1.6,0.3,3.1,0.7c1.3,0.4,2.2,0.5,2.5,0.5c0.3,0,0.6-0.1,0.8-0.4
			c0.3-0.2,0.6-0.5,0.8-0.8c0.3-0.3,0.5-0.5,0.6-0.6h0.4l1.4,1.4v0.4l-2.5,3.2l-0.5,0.2c-0.6-0.1-1.6-0.3-3-0.7
			c-0.1,0-0.5-0.1-1.2-0.3c-0.7-0.2-1.1-0.3-1.4-0.3c-0.3,0-0.5,0.1-0.8,0.3s-0.5,0.5-0.8,0.8s-0.5,0.6-0.6,0.7H126.9z M133.8,78.4
			l-2.1-6.9h-0.3l-2.4,6.9l2.3,0L133.8,78.4z"/>
		<path class="st2" d="M157.3,69.4c1.5,1.6,2.2,3.8,2.2,6.6c0,3.1-0.8,5.5-2.4,7.3s-3.9,2.6-6.9,2.6c-2.7,0-4.8-0.8-6.3-2.4
			c-1.5-1.6-2.2-3.8-2.2-6.7c0-3.1,0.8-5.4,2.4-7.1c1.6-1.7,3.9-2.5,6.8-2.5C153.7,67.1,155.8,67.9,157.3,69.4z M147.3,72
			c-0.6,0.8-1,2.2-1,4.2c0,1.6,0.1,2.8,0.4,3.7c0.3,0.9,0.7,1.5,1.3,1.9c0.6,0.4,1.4,0.6,2.5,0.6c1.5,0,2.6-0.4,3.2-1.2s1-2.2,1-4.2
			c0-1.6-0.1-2.8-0.4-3.7s-0.7-1.5-1.3-1.9c-0.6-0.4-1.4-0.6-2.5-0.6C149,70.7,148,71.1,147.3,72z"/>
		<path class="st2" d="M183.2,69.4c1.5,1.5,2.3,3.6,2.3,6.3c0,3.2-0.8,5.7-2.5,7.4c-1.7,1.7-4.1,2.6-7.3,2.6c-1.8,0-4.1-0.1-6.9-0.2
			l0.2-5.4l-0.2-12.8l8-0.1C179.5,67.2,181.7,68,183.2,69.4z M180.7,76.8c0-2.1-0.3-3.7-1-4.6c-0.7-0.9-1.8-1.4-3.3-1.4
			c-1.1,0-2.2,0-3.1,0.1l-0.2,8.7l0.1,2.3c0.6,0.1,1.2,0.1,1.8,0.2c0.6,0,1.1,0.1,1.5,0.1C179.3,82.3,180.7,80.5,180.7,76.8z"/>
		<path class="st2" d="M201.5,81.9l0.3,0.3l-0.3,3.4H189l0.2-5.4L189,67.4h12.6l0.3,0.4l-0.3,3.3l-4.7-0.2h-3.4l-0.1,3.7l3.2,0
			l3.1-0.1l0.3,0.3l-0.3,3.4l-3.4-0.1h-3l0,1.6l0.1,2.3h3.2L201.5,81.9z"/>
	</g>
	<rect x="-0.2" y="109.5" class="st0" width="223.2" height="42.6"/>
	<g class="st1">
		<path class="st2" d="M24.5,123.4c1.1,1,1.7,2.4,1.7,4.2c0,2.1-0.7,3.8-2.2,5.1c-1.5,1.3-3.4,1.9-5.9,1.9h-1.8l0.2,5.6h-4.5
			l0.2-5.4l-0.2-12.8l7.8,0C21.8,121.9,23.4,122.4,24.5,123.4z M20.8,130.1c0.4-0.5,0.6-1.2,0.6-2.1c0-0.9-0.3-1.6-0.8-2.1
			s-1.3-0.7-2.4-0.8l-1.8,0.1l-0.1,5.9l2.6,0.1C19.8,131,20.4,130.6,20.8,130.1z"/>
		<path class="st2" d="M45,139.1l0,0.5c-1.5,0.5-3,0.7-4.4,0.8L40,140c-1.3-2.3-2.4-4.2-3.1-5.7h-2.8v0l0.2,5.8h-4.5l0.2-5.4
			l-0.2-12.8l7.8,0c2,0,3.6,0.5,4.7,1.4c1.1,0.9,1.7,2.3,1.7,4c0,1.1-0.3,2.2-0.9,3.2c-0.6,1-1.4,1.8-2.5,2.4
			C42.2,135.3,43.7,137.3,45,139.1z M34.1,130.8l2.7,0.1c0.8-0.3,1.4-0.6,1.8-1.2c0.4-0.5,0.6-1.2,0.6-1.9c0-0.9-0.3-1.5-0.8-1.9
			s-1.3-0.7-2.4-0.7l-1.8,0.1L34.1,130.8z"/>
		<path class="st2" d="M62.4,124c1.5,1.6,2.2,3.8,2.2,6.6c0,3.1-0.8,5.5-2.4,7.3s-3.9,2.6-6.9,2.6c-2.7,0-4.8-0.8-6.3-2.4
			c-1.5-1.6-2.2-3.8-2.2-6.8c0-3.1,0.8-5.4,2.4-7.1c1.6-1.7,3.9-2.5,6.8-2.5C58.8,121.6,60.9,122.4,62.4,124z M52.4,126.5
			c-0.6,0.8-1,2.2-1,4.2c0,1.6,0.1,2.8,0.4,3.7s0.7,1.5,1.3,1.9c0.6,0.4,1.4,0.6,2.5,0.6c1.5,0,2.6-0.4,3.2-1.2c0.6-0.8,1-2.2,1-4.2
			c0-1.6-0.1-2.8-0.4-3.7s-0.7-1.5-1.3-1.9c-0.6-0.4-1.4-0.6-2.5-0.6C54.1,125.3,53.1,125.7,52.4,126.5z"/>
		<path class="st2" d="M72.5,125.5l-0.1,4.3l2.5,0l3.3-0.1l0.3,0.3l-0.3,3.4l-3.7-0.1l-2.2,0l0,1l0.2,5.8H68l0.2-5.4L68,121.9h11.9
			l0.3,0.4l-0.3,3.3l-4.6-0.2H72.5z"/>
		<path class="st2" d="M95.3,136.4l0.3,0.3l-0.3,3.4H82.8l0.2-5.4l-0.2-12.8h12.6l0.3,0.4l-0.3,3.3l-4.7-0.2h-3.4l-0.1,3.7l3.2,0
			l3.1-0.1l0.3,0.3l-0.3,3.4l-3.4-0.1h-3l0,1.6l0.1,2.3h3.2L95.3,136.4z"/>
		<path class="st2" d="M110.6,122.6l-0.7,4l-0.6,0.2c-0.8-0.6-1.5-1-2.2-1.3c-0.7-0.3-1.4-0.4-2-0.4c-0.7,0-1.2,0.2-1.6,0.5
			c-0.4,0.3-0.6,0.7-0.6,1.2c0,0.5,0.2,0.9,0.7,1.2c0.5,0.3,1.2,0.7,2.3,1.1c1.1,0.5,2,0.9,2.6,1.3c0.7,0.4,1.3,0.9,1.8,1.6
			c0.5,0.7,0.7,1.5,0.7,2.6c0,1-0.3,2-0.8,2.9c-0.5,0.9-1.4,1.6-2.4,2.2c-1.1,0.6-2.4,0.8-4,0.8c-0.9,0-1.8-0.1-2.8-0.3
			c-1-0.2-2-0.5-3-0.8l0.6-4.2l0.5-0.3c0.8,0.7,1.7,1.3,2.7,1.7c1,0.4,1.9,0.6,2.6,0.6c0.7,0,1.2-0.2,1.6-0.5
			c0.4-0.3,0.6-0.8,0.6-1.3c0-0.5-0.2-1-0.7-1.3c-0.5-0.3-1.3-0.7-2.3-1.1c-1.1-0.5-2-0.9-2.6-1.3c-0.7-0.4-1.3-0.9-1.8-1.6
			c-0.5-0.7-0.7-1.6-0.7-2.6c0-1.1,0.3-2.1,0.9-3c0.6-0.9,1.4-1.6,2.5-2.1c1.1-0.5,2.4-0.8,3.8-0.8C107.4,121.7,109,122,110.6,122.6
			z"/>
		<path class="st2" d="M126.6,122.6l-0.7,4l-0.6,0.2c-0.8-0.6-1.5-1-2.2-1.3c-0.7-0.3-1.4-0.4-2-0.4c-0.7,0-1.2,0.2-1.6,0.5
			c-0.4,0.3-0.6,0.7-0.6,1.2c0,0.5,0.2,0.9,0.7,1.2c0.5,0.3,1.2,0.7,2.3,1.1c1.1,0.5,2,0.9,2.6,1.3c0.7,0.4,1.3,0.9,1.8,1.6
			c0.5,0.7,0.7,1.5,0.7,2.6c0,1-0.3,2-0.8,2.9c-0.5,0.9-1.4,1.6-2.4,2.2s-2.4,0.8-4,0.8c-0.9,0-1.8-0.1-2.8-0.3c-1-0.2-2-0.5-3-0.8
			l0.6-4.2l0.5-0.3c0.8,0.7,1.7,1.3,2.7,1.7c1,0.4,1.9,0.6,2.6,0.6c0.7,0,1.2-0.2,1.6-0.5c0.4-0.3,0.6-0.8,0.6-1.3
			c0-0.5-0.2-1-0.7-1.3c-0.5-0.3-1.3-0.7-2.3-1.1c-1.1-0.5-2-0.9-2.6-1.3c-0.7-0.4-1.3-0.9-1.8-1.6c-0.5-0.7-0.7-1.6-0.7-2.6
			c0-1.1,0.3-2.1,0.9-3s1.4-1.6,2.5-2.1c1.1-0.5,2.4-0.8,3.8-0.8C123.4,121.7,125,122,126.6,122.6z"/>
		<path class="st2" d="M145.4,124c1.5,1.6,2.2,3.8,2.2,6.6c0,3.1-0.8,5.5-2.4,7.3s-3.9,2.6-6.9,2.6c-2.7,0-4.8-0.8-6.3-2.4
			c-1.5-1.6-2.2-3.8-2.2-6.8c0-3.1,0.8-5.4,2.4-7.1c1.6-1.7,3.9-2.5,6.8-2.5C141.8,121.6,143.9,122.4,145.4,124z M135.5,126.5
			c-0.6,0.8-1,2.2-1,4.2c0,1.6,0.1,2.8,0.4,3.7c0.3,0.9,0.7,1.5,1.3,1.9c0.6,0.4,1.4,0.6,2.5,0.6c1.5,0,2.6-0.4,3.2-1.2s1-2.2,1-4.2
			c0-1.6-0.1-2.8-0.4-3.7s-0.7-1.5-1.3-1.9c-0.6-0.4-1.4-0.6-2.5-0.6C137.2,125.3,136.1,125.7,135.5,126.5z"/>
		<path class="st2" d="M166.5,139.1l0,0.5c-1.5,0.5-3,0.7-4.4,0.8l-0.6-0.4c-1.3-2.3-2.4-4.2-3.1-5.7h-2.8v0l0.2,5.8h-4.5l0.2-5.4
			l-0.2-12.8l7.8,0c2,0,3.6,0.5,4.7,1.4c1.1,0.9,1.7,2.3,1.7,4c0,1.1-0.3,2.2-0.9,3.2c-0.6,1-1.4,1.8-2.5,2.4
			C163.7,135.3,165.2,137.3,166.5,139.1z M155.6,130.8l2.7,0.1c0.8-0.3,1.4-0.6,1.8-1.2c0.4-0.5,0.6-1.2,0.6-1.9
			c0-0.9-0.3-1.5-0.8-1.9s-1.3-0.7-2.4-0.7l-1.8,0.1L155.6,130.8z"/>
		<path class="st2" d="M182.6,136.4l0.3,0.3l-0.3,3.4h-12.5l0.2-5.4l-0.2-12.8h12.6l0.3,0.4l-0.3,3.3l-4.7-0.2h-3.4l-0.1,3.7l3.2,0
			l3.1-0.1l0.3,0.3l-0.3,3.4l-3.4-0.1h-3l0,1.6l0.1,2.3h3.2L182.6,136.4z"/>
		<path class="st2" d="M197.9,122.6l-0.7,4l-0.6,0.2c-0.8-0.6-1.5-1-2.2-1.3c-0.7-0.3-1.4-0.4-2-0.4c-0.7,0-1.2,0.2-1.6,0.5
			c-0.4,0.3-0.6,0.7-0.6,1.2c0,0.5,0.2,0.9,0.7,1.2c0.5,0.3,1.2,0.7,2.3,1.1c1.1,0.5,2,0.9,2.6,1.3c0.7,0.4,1.3,0.9,1.8,1.6
			c0.5,0.7,0.7,1.5,0.7,2.6c0,1-0.3,2-0.8,2.9c-0.5,0.9-1.4,1.6-2.4,2.2s-2.4,0.8-4,0.8c-0.9,0-1.8-0.1-2.8-0.3c-1-0.2-2-0.5-3-0.8
			l0.6-4.2l0.5-0.3c0.8,0.7,1.7,1.3,2.7,1.7c1,0.4,1.9,0.6,2.6,0.6c0.7,0,1.2-0.2,1.6-0.5c0.4-0.3,0.6-0.8,0.6-1.3
			c0-0.5-0.2-1-0.7-1.3c-0.5-0.3-1.3-0.7-2.3-1.1c-1.1-0.5-2-0.9-2.6-1.3c-0.7-0.4-1.3-0.9-1.8-1.6c-0.5-0.7-0.7-1.6-0.7-2.6
			c0-1.1,0.3-2.1,0.9-3s1.4-1.6,2.5-2.1c1.1-0.5,2.4-0.8,3.8-0.8C194.7,121.7,196.3,122,197.9,122.6z"/>
	</g>
</g>
</svg>
