<?xml version="1.0" encoding="utf-8"?>
<!-- Generator: Adobe Illustrator 22.0.1, SVG Export Plug-In . SVG Version: 6.00 Build 0)  -->
<svg version="1.1" id="Camada_1" xmlns="http://www.w3.org/2000/svg" xmlns:xlink="http://www.w3.org/1999/xlink" x="0px" y="0px"
	 viewBox="0 0 481 121" style="enable-background:new 0 0 481 121;" xml:space="preserve">
<style type="text/css">
	.st0{fill:#1A1A1A;}
	.st1{fill:#FFFFFF;}
</style>
<g>
	<rect x="0.1" class="st0" width="480.9" height="53"/>
	<rect y="68" class="st0" width="328" height="53"/>
	<g>
		<g>
			<path class="st1" d="M33,16.3L32,21l-0.5,0.2c-0.7-0.5-1.5-0.9-2.4-1.1c-0.9-0.3-1.9-0.4-2.8-0.4c-1.8,0-3.2,0.5-4.1,1.6
				c-0.9,1.1-1.3,2.7-1.3,5c0,5,1.9,7.4,5.7,7.4c0.9,0,1.8-0.1,2.8-0.4c1-0.2,1.8-0.6,2.6-1l0.5,0.3l-0.5,4.7
				c-1.8,0.7-3.7,1.1-5.8,1.1c-3.7,0-6.5-1-8.4-3c-1.9-2-2.9-4.8-2.9-8.5c0-3.8,1-6.7,3.1-8.8c2-2.1,4.9-3.1,8.7-3.1
				C29,15.1,31.1,15.5,33,16.3z"/>
			<path class="st1" d="M55.8,18c1.9,2,2.8,4.7,2.8,8.3c0,3.9-1,6.9-3,9.1c-2,2.1-4.9,3.2-8.6,3.2c-3.4,0-6-1-7.9-3
				c-1.9-2-2.8-4.8-2.8-8.4c0-3.8,1-6.8,3-8.9c2-2.1,4.9-3.2,8.5-3.2C51.3,15,53.9,16,55.8,18z M43.4,21.1c-0.8,1-1.2,2.7-1.2,5.2
				c0,2,0.2,3.5,0.5,4.7c0.3,1.1,0.9,1.9,1.7,2.4s1.8,0.7,3.1,0.7c1.9,0,3.2-0.5,4-1.5c0.8-1,1.2-2.7,1.2-5.2c0-2-0.2-3.5-0.5-4.7
				c-0.4-1.1-0.9-1.9-1.7-2.4c-0.8-0.5-1.8-0.7-3.1-0.7C45.5,19.6,44.2,20.1,43.4,21.1z"/>
			<path class="st1" d="M89.7,38.1h-5.1l-0.3-6.9l-0.8-7.4h-0.4l-5,12.1h-4.4l-4.5-12.1H69l-0.8,6.9l-0.5,7.4h-4.8l2.4-22.7H72
				l0.9,3.3l3.3,9.6h0.4l3.6-9.6l1-3.4h6.5L89.7,38.1z"/>
			<path class="st1" d="M111.7,17.2c1.4,1.2,2.1,3,2.1,5.2c0,2.6-0.9,4.8-2.7,6.3c-1.8,1.6-4.3,2.4-7.3,2.4h-2.3l0.2,7H96l0.2-6.8
				l-0.2-16l9.8,0C108.3,15.4,110.3,16,111.7,17.2z M107.1,25.6c0.5-0.7,0.8-1.5,0.8-2.7c0-1.1-0.3-2-1-2.6c-0.6-0.6-1.6-0.9-3-0.9
				l-2.2,0.1l-0.1,7.4l3.2,0.1C105.8,26.8,106.6,26.3,107.1,25.6z"/>
			<path class="st1" d="M132.6,33.9l-0.4,4.2h-13.4l0.3-6.8l-0.3-16h5.8l-0.3,15.4l0.1,2.7h7.9L132.6,33.9z"/>
			<path class="st1" d="M153,33.5l0.4,0.4l-0.4,4.2h-15.6l0.2-6.8l-0.2-16h15.8l0.3,0.4l-0.4,4.2l-5.8-0.2h-4.2l-0.1,4.6l4,0
				l3.9-0.1l0.3,0.4l-0.4,4.3l-4.3-0.1h-3.7l0,2l0.1,2.9h4L153,33.5z"/>
			<path class="st1" d="M171.2,26.2l7.6,12h-6.7l-1.2-2.5l-3.6-5l-4,5.4l-1.1,2.2h-5.8l7.6-11.1l-7.6-11.6h6.8l1.2,2.5l3.4,4.8
				l3.6-5l1.1-2.2h5.9L171.2,26.2z"/>
			<path class="st1" d="M201.6,18c1.9,2,2.8,4.7,2.8,8.3c0,3.9-1,6.9-3,9.1c-2,2.1-4.9,3.2-8.6,3.2c-3.4,0-6-1-7.9-3
				c-1.9-2-2.8-4.8-2.8-8.4c0-3.8,1-6.8,3-8.9c2-2.1,4.9-3.2,8.5-3.2C197.1,15,199.7,16,201.6,18z M189.2,21.1
				c-0.8,1-1.2,2.7-1.2,5.2c0,2,0.2,3.5,0.5,4.7c0.3,1.1,0.9,1.9,1.7,2.4c0.8,0.5,1.8,0.7,3.1,0.7c1.9,0,3.2-0.5,4-1.5
				c0.8-1,1.2-2.7,1.2-5.2c0-2-0.2-3.5-0.5-4.7c-0.4-1.1-0.9-1.9-1.7-2.4c-0.8-0.5-1.8-0.7-3.1-0.7C191.3,19.6,190,20.1,189.2,21.1z
				"/>
			<path class="st1" d="M235.7,18c1.9,1.8,2.8,4.5,2.8,7.9c0,4-1.1,7.1-3.2,9.3c-2.1,2.2-5.2,3.2-9.1,3.2c-2.3,0-5.2-0.1-8.6-0.3
				l0.2-6.8l-0.2-16l10-0.2C231.2,15.2,233.9,16.1,235.7,18z M232.7,27.2c0-2.7-0.4-4.6-1.3-5.7c-0.9-1.2-2.3-1.7-4.2-1.7
				c-1.4,0-2.7,0.1-3.9,0.2l-0.2,10.9l0.1,2.9c0.7,0.1,1.5,0.2,2.2,0.2c0.7,0.1,1.4,0.1,1.9,0.1C230.9,34.1,232.7,31.8,232.7,27.2z"
				/>
			<path class="st1" d="M259.8,33.5l0.4,0.4l-0.4,4.2h-15.6l0.2-6.8l-0.2-16H260l0.3,0.4L260,20l-5.8-0.2h-4.2l-0.1,4.6l4,0l3.9-0.1
				l0.3,0.4l-0.4,4.3l-4.3-0.1h-3.7l0,2l0.1,2.9h4L259.8,33.5z"/>
			<path class="st1" d="M278.8,19.8l-0.1,5.4l3.1,0l4.2-0.1l0.4,0.4l-0.4,4.2l-4.6-0.1l-2.8,0l0,1.2l0.2,7.3h-5.7l0.3-6.8l-0.3-16
				h14.8l0.3,0.4l-0.4,4.2l-5.8-0.2H278.8z"/>
			<path class="st1" d="M310.1,18c1.9,2,2.8,4.7,2.8,8.3c0,3.9-1,6.9-3,9.1c-2,2.1-4.9,3.2-8.6,3.2c-3.4,0-6-1-7.9-3
				c-1.9-2-2.8-4.8-2.8-8.4c0-3.8,1-6.8,3-8.9s4.9-3.2,8.5-3.2C305.6,15,308.3,16,310.1,18z M297.7,21.1c-0.8,1-1.2,2.7-1.2,5.2
				c0,2,0.2,3.5,0.5,4.7c0.3,1.1,0.9,1.9,1.7,2.4c0.8,0.5,1.8,0.7,3.1,0.7c1.9,0,3.2-0.5,4-1.5c0.8-1,1.2-2.7,1.2-5.2
				c0-2-0.2-3.5-0.5-4.7c-0.4-1.1-0.9-1.9-1.7-2.4c-0.7-0.5-1.8-0.7-3.1-0.7C299.8,19.6,298.5,20.1,297.7,21.1z"/>
			<path class="st1" d="M337.7,36.8l0,0.6c-1.9,0.6-3.7,0.9-5.5,1l-0.8-0.5c-1.7-2.9-3-5.3-3.9-7.2H324v0l0.2,7.3h-5.7l0.2-6.8
				l-0.2-16l9.8,0c2.5,0,4.5,0.6,5.9,1.8c1.4,1.2,2.1,2.9,2.1,5.1c0,1.4-0.4,2.7-1.1,3.9c-0.7,1.2-1.8,2.2-3.1,3
				C334.1,32.1,336,34.6,337.7,36.8z M324.1,26.5l3.4,0.2c1-0.3,1.8-0.8,2.2-1.4c0.5-0.6,0.7-1.4,0.7-2.4c0-1.1-0.3-1.9-0.9-2.4
				c-0.6-0.5-1.6-0.8-3-0.9l-2.3,0.1L324.1,26.5z"/>
			<path class="st1" d="M368.5,38.1h-5.1l-0.3-6.9l-0.8-7.4H362l-5,12.1h-4.4l-4.5-12.1h-0.4l-0.8,6.9l-0.5,7.4h-4.8l2.4-22.7h6.7
				l0.9,3.3l3.3,9.6h0.4l3.6-9.6l1-3.4h6.5L368.5,38.1z"/>
			<path class="st1" d="M394.2,38.1h-5.7l-0.6-3.3l-0.4-1.3l-4.6,0l-4,0.1l-0.3,0.9l-0.7,3.6h-5.5l8-22.7h6.7L394.2,38.1z
				 M386.2,29.3l-2.6-8.7h-0.4l-3,8.7l2.9,0L386.2,29.3z"/>
			<path class="st1" d="M412.1,33.4c1-0.2,1.8-0.6,2.6-1l0.5,0.3l-0.5,4.7c-1.5,0.6-3.2,1-5.1,1.1l-0.5,1.8l1.5,0.9
				c0.7,0.4,1.1,0.8,1.4,1.2s0.4,0.9,0.4,1.5c0,1-0.4,1.8-1.2,2.4c-0.8,0.6-1.8,0.9-3.1,0.9c-1.3,0-2.6-0.4-3.7-1.3l0.4-2.5l0.3-0.1
				c0.9,0.9,1.8,1.4,2.7,1.4c0.7,0,1.1-0.3,1.1-0.9c0-0.2-0.1-0.4-0.2-0.5c-0.1-0.1-0.3-0.3-0.6-0.4l-2.2-1.3l0.7-3.2
				c-3-0.4-5.3-1.5-6.8-3.4c-1.5-1.9-2.3-4.6-2.3-7.9c0-3.8,1-6.7,3.1-8.8c2-2.1,4.9-3.1,8.7-3.1c2.2,0,4.3,0.4,6.3,1.2l-1,4.8
				l-0.5,0.2c-0.7-0.5-1.5-0.9-2.4-1.1c-0.9-0.3-1.9-0.4-2.8-0.4c-1.8,0-3.2,0.5-4.1,1.6c-0.9,1.1-1.3,2.7-1.3,5
				c0,5,1.9,7.4,5.7,7.4C410.2,33.8,411.2,33.6,412.1,33.4z"/>
			<path class="st1" d="M440.2,38.1h-5.7l-0.6-3.3l-0.4-1.3l-4.6,0l-4,0.1l-0.3,0.9l-0.7,3.6h-5.5l8-22.7h6.7L440.2,38.1z M423.5,12
				l-1.8-1.8V9.7l3.2-4l0.5-0.2c0.7,0.1,2,0.4,3.8,0.9c1.7,0.4,2.7,0.7,3.1,0.7c0.4,0,0.7-0.2,1.1-0.5c0.3-0.3,0.7-0.6,1.1-1
				c0.4-0.4,0.6-0.7,0.7-0.8h0.5l1.8,1.8V7l-3.1,4l-0.6,0.2c-0.8-0.1-2.1-0.4-3.7-0.9c-0.2,0-0.6-0.2-1.5-0.4
				c-0.8-0.2-1.4-0.3-1.7-0.3c-0.3,0-0.7,0.1-1,0.4c-0.3,0.3-0.7,0.6-1,1c-0.4,0.4-0.6,0.7-0.8,0.9H423.5z M432.2,29.3l-2.6-8.7
				h-0.4l-3,8.7l2.9,0L432.2,29.3z"/>
			<path class="st1" d="M463.2,18c1.9,2,2.8,4.7,2.8,8.3c0,3.9-1,6.9-3,9.1c-2,2.1-4.9,3.2-8.6,3.2c-3.4,0-6-1-7.9-3
				c-1.9-2-2.8-4.8-2.8-8.4c0-3.8,1-6.8,3-8.9s4.9-3.2,8.5-3.2C458.7,15,461.3,16,463.2,18z M450.8,21.1c-0.8,1-1.2,2.7-1.2,5.2
				c0,2,0.2,3.5,0.5,4.7c0.3,1.1,0.9,1.9,1.7,2.4c0.8,0.5,1.8,0.7,3.1,0.7c1.9,0,3.2-0.5,4-1.5c0.8-1,1.2-2.7,1.2-5.2
				c0-2-0.2-3.5-0.5-4.7c-0.4-1.1-0.9-1.9-1.7-2.4c-0.7-0.5-1.8-0.7-3.1-0.7C452.9,19.6,451.6,20.1,450.8,21.1z"/>
		</g>
	</g>
	<g>
		<path class="st1" d="M32.8,86c1.9,1.8,2.8,4.5,2.8,7.9c0,4-1.1,7.1-3.2,9.3c-2.1,2.2-5.2,3.2-9.1,3.2c-2.3,0-5.2-0.1-8.6-0.3
			l0.2-6.8l-0.2-16l10-0.2C28.2,83.2,30.9,84.1,32.8,86z M29.7,95.2c0-2.7-0.4-4.6-1.3-5.7c-0.9-1.2-2.3-1.7-4.2-1.7
			c-1.4,0-2.7,0.1-3.9,0.2l-0.2,10.9l0.1,2.9c0.7,0.1,1.5,0.2,2.2,0.2c0.7,0.1,1.4,0.1,1.9,0.1C27.9,102.1,29.7,99.8,29.7,95.2z"/>
		<path class="st1" d="M56.9,101.5l0.4,0.4l-0.4,4.2H41.2l0.2-6.8l-0.2-16H57l0.3,0.4L57,88l-5.8-0.2h-4.2l-0.1,4.6l4,0l3.9-0.1
			l0.3,0.4L54.7,97l-4.3-0.1h-3.7l0,2l0.1,2.9h4L56.9,101.5z"/>
		<path class="st1" d="M86.1,85.2c1.4,1.2,2.1,3,2.1,5.2c0,2.6-0.9,4.8-2.7,6.3c-1.8,1.6-4.3,2.4-7.3,2.4h-2.3l0.2,7h-5.7l0.2-6.8
			l-0.2-16l9.8,0C82.7,83.4,84.7,84,86.1,85.2z M81.5,93.6c0.5-0.7,0.8-1.5,0.8-2.7c0-1.1-0.3-2-1-2.6c-0.6-0.6-1.6-0.9-3-0.9
			L76,87.5L75.9,95l3.2,0.1C80.2,94.8,81,94.3,81.5,93.6z"/>
		<path class="st1" d="M112.7,104.8l0,0.6c-1.9,0.6-3.7,0.9-5.5,1l-0.8-0.5c-1.7-2.9-3-5.3-3.9-7.2h-3.5v0l0.2,7.3h-5.7l0.2-6.8
			l-0.2-16l9.8,0c2.5,0,4.5,0.6,5.9,1.8s2.1,2.9,2.1,5.1c0,1.4-0.4,2.7-1.1,3.9c-0.7,1.2-1.8,2.2-3.1,3
			C109,100.1,110.9,102.6,112.7,104.8z M99,94.5l3.4,0.2c1-0.3,1.8-0.8,2.2-1.4c0.5-0.6,0.7-1.4,0.7-2.4c0-1.1-0.3-1.9-0.9-2.4
			c-0.6-0.5-1.6-0.8-3-0.9l-2.3,0.1L99,94.5z"/>
		<path class="st1" d="M135.6,86c1.9,2,2.8,4.7,2.8,8.3c0,3.9-1,6.9-3,9.1c-2,2.1-4.9,3.2-8.6,3.2c-3.4,0-6-1-7.9-3
			c-1.9-2-2.8-4.8-2.8-8.4c0-3.8,1-6.8,3-8.9c2-2.1,4.9-3.2,8.5-3.2C131.1,83,133.8,84,135.6,86z M123.2,89.1
			c-0.8,1-1.2,2.7-1.2,5.2c0,2,0.2,3.5,0.5,4.7c0.3,1.1,0.9,1.9,1.7,2.4c0.8,0.5,1.8,0.7,3.1,0.7c1.9,0,3.2-0.5,4-1.5
			c0.8-1,1.2-2.7,1.2-5.2c0-2-0.2-3.5-0.5-4.7c-0.4-1.1-0.9-1.9-1.7-2.4c-0.8-0.5-1.8-0.7-3.1-0.7C125.4,87.6,124,88.1,123.2,89.1z"
			/>
		<path class="st1" d="M149.5,87.8l-0.1,5.4l3.1,0l4.2-0.1l0.4,0.4l-0.4,4.2l-4.6-0.1l-2.8,0l0,1.2l0.2,7.3h-5.7l0.3-6.8l-0.3-16
			h14.8l0.3,0.4l-0.4,4.2l-5.8-0.2H149.5z"/>
		<path class="st1" d="M178.8,101.5l0.4,0.4l-0.4,4.2h-15.6l0.2-6.8l-0.2-16H179l0.3,0.4l-0.4,4.2l-5.8-0.2h-4.2l-0.1,4.6l4,0
			l3.9-0.1l0.3,0.4l-0.4,4.3l-4.3-0.1h-3.7l0,2l0.1,2.9h4L178.8,101.5z"/>
		<path class="st1" d="M198.9,84.2l-0.9,5l-0.8,0.2c-1-0.7-1.9-1.3-2.8-1.6c-0.9-0.4-1.7-0.5-2.5-0.5c-0.8,0-1.5,0.2-2,0.6
			c-0.5,0.4-0.7,0.9-0.7,1.5c0,0.6,0.3,1.1,0.9,1.6c0.6,0.4,1.5,0.9,2.8,1.4c1.3,0.6,2.5,1.1,3.3,1.6c0.9,0.5,1.6,1.1,2.2,2
			c0.6,0.9,0.9,1.9,0.9,3.2s-0.3,2.5-1,3.6c-0.7,1.1-1.7,2-3.1,2.7c-1.4,0.7-3.1,1-5.1,1c-1.1,0-2.3-0.1-3.5-0.3
			c-1.3-0.2-2.5-0.6-3.7-1.1l0.8-5.3l0.6-0.4c1,0.9,2.1,1.6,3.3,2.2c1.2,0.5,2.3,0.8,3.3,0.8c0.8,0,1.5-0.2,2-0.6
			c0.5-0.4,0.8-0.9,0.8-1.6c0-0.7-0.3-1.2-0.9-1.6c-0.6-0.4-1.6-0.9-2.9-1.4c-1.3-0.6-2.5-1.1-3.3-1.6c-0.9-0.5-1.6-1.2-2.2-2
			c-0.6-0.9-0.9-2-0.9-3.2c0-1.3,0.4-2.6,1.1-3.7c0.7-1.1,1.8-2,3.1-2.6c1.4-0.6,3-0.9,4.8-0.9C194.8,83.1,196.9,83.5,198.9,84.2z"
			/>
		<path class="st1" d="M219.8,84.2l-0.9,5l-0.8,0.2c-1-0.7-1.9-1.3-2.8-1.6c-0.9-0.4-1.7-0.5-2.5-0.5c-0.8,0-1.5,0.2-2,0.6
			c-0.5,0.4-0.7,0.9-0.7,1.5c0,0.6,0.3,1.1,0.9,1.6s1.5,0.9,2.8,1.4c1.3,0.6,2.5,1.1,3.3,1.6c0.9,0.5,1.6,1.1,2.2,2
			c0.6,0.9,0.9,1.9,0.9,3.2s-0.3,2.5-1,3.6c-0.7,1.1-1.7,2-3.1,2.7c-1.4,0.7-3.1,1-5.1,1c-1.1,0-2.3-0.1-3.5-0.3
			c-1.3-0.2-2.5-0.6-3.7-1.1l0.8-5.3l0.6-0.4c1,0.9,2.1,1.6,3.3,2.2c1.2,0.5,2.3,0.8,3.3,0.8c0.8,0,1.5-0.2,2-0.6
			c0.5-0.4,0.8-0.9,0.8-1.6c0-0.7-0.3-1.2-0.9-1.6c-0.6-0.4-1.6-0.9-2.9-1.4c-1.3-0.6-2.5-1.1-3.3-1.6s-1.6-1.2-2.2-2
			c-0.6-0.9-0.9-2-0.9-3.2c0-1.3,0.4-2.6,1.1-3.7c0.7-1.1,1.8-2,3.1-2.6c1.4-0.6,3-0.9,4.8-0.9C215.7,83.1,217.8,83.5,219.8,84.2z"
			/>
		<path class="st1" d="M244.1,86c1.9,2,2.8,4.7,2.8,8.3c0,3.9-1,6.9-3,9.1c-2,2.1-4.9,3.2-8.6,3.2c-3.4,0-6-1-7.9-3
			c-1.9-2-2.8-4.8-2.8-8.4c0-3.8,1-6.8,3-8.9c2-2.1,4.9-3.2,8.5-3.2C239.6,83,242.3,84,244.1,86z M231.7,89.1
			c-0.8,1-1.2,2.7-1.2,5.2c0,2,0.2,3.5,0.5,4.7c0.3,1.1,0.9,1.9,1.7,2.4c0.8,0.5,1.8,0.7,3.1,0.7c1.9,0,3.2-0.5,4-1.5
			c0.8-1,1.2-2.7,1.2-5.2c0-2-0.2-3.5-0.5-4.7c-0.4-1.1-0.9-1.9-1.7-2.4c-0.8-0.5-1.8-0.7-3.1-0.7C233.8,87.6,232.5,88.1,231.7,89.1
			z"/>
		<path class="st1" d="M271.7,104.8l0,0.6c-1.9,0.6-3.7,0.9-5.5,1l-0.8-0.5c-1.7-2.9-3-5.3-3.9-7.2H258v0l0.2,7.3h-5.7l0.2-6.8
			l-0.2-16l9.8,0c2.5,0,4.5,0.6,5.9,1.8c1.4,1.2,2.1,2.9,2.1,5.1c0,1.4-0.4,2.7-1.1,3.9c-0.7,1.2-1.8,2.2-3.1,3
			C268.1,100.1,270,102.6,271.7,104.8z M258.1,94.5l3.4,0.2c1-0.3,1.8-0.8,2.2-1.4s0.7-1.4,0.7-2.4c0-1.1-0.3-1.9-0.9-2.4
			c-0.6-0.5-1.6-0.8-3-0.9l-2.3,0.1L258.1,94.5z"/>
		<path class="st1" d="M292.6,101.5l0.4,0.4l-0.4,4.2H277l0.2-6.8l-0.2-16h15.8l0.3,0.4l-0.4,4.2l-5.8-0.2h-4.2l-0.1,4.6l4,0
			l3.9-0.1l0.3,0.4l-0.4,4.3l-4.3-0.1h-3.7l0,2l0.1,2.9h4L292.6,101.5z"/>
		<path class="st1" d="M312.7,84.2l-0.9,5l-0.8,0.2c-1-0.7-1.9-1.3-2.8-1.6c-0.9-0.4-1.7-0.5-2.5-0.5c-0.8,0-1.5,0.2-2,0.6
			c-0.5,0.4-0.7,0.9-0.7,1.5c0,0.6,0.3,1.1,0.9,1.6c0.6,0.4,1.5,0.9,2.8,1.4c1.4,0.6,2.5,1.1,3.3,1.6c0.9,0.5,1.6,1.1,2.2,2
			c0.6,0.9,0.9,1.9,0.9,3.2s-0.3,2.5-1,3.6s-1.7,2-3.1,2.7c-1.4,0.7-3.1,1-5.1,1c-1.1,0-2.3-0.1-3.5-0.3c-1.3-0.2-2.5-0.6-3.7-1.1
			l0.8-5.3l0.6-0.4c1,0.9,2.1,1.6,3.3,2.2c1.2,0.5,2.3,0.8,3.3,0.8c0.8,0,1.5-0.2,2-0.6c0.5-0.4,0.8-0.9,0.8-1.6
			c0-0.7-0.3-1.2-0.9-1.6c-0.6-0.4-1.6-0.9-2.9-1.4c-1.3-0.6-2.5-1.1-3.3-1.6c-0.9-0.5-1.6-1.2-2.2-2s-0.9-2-0.9-3.2
			c0-1.3,0.4-2.6,1.1-3.7c0.7-1.1,1.8-2,3.1-2.6s3-0.9,4.8-0.9C308.6,83.1,310.7,83.5,312.7,84.2z"/>
	</g>
</g>
</svg>
