<?xml version="1.0" encoding="UTF-8" standalone="no"?>
<svg
   xmlns:dc="http://purl.org/dc/elements/1.1/"
   xmlns:cc="http://creativecommons.org/ns#"
   xmlns:rdf="http://www.w3.org/1999/02/22-rdf-syntax-ns#"
   xmlns:svg="http://www.w3.org/2000/svg"
   xmlns="http://www.w3.org/2000/svg"
   xmlns:sodipodi="http://sodipodi.sourceforge.net/DTD/sodipodi-0.dtd"
   xmlns:inkscape="http://www.inkscape.org/namespaces/inkscape"
   version="1"
   width="178"
   height="178"
   id="svg42"
   sodipodi:docname="logo-complexo-de-formacao-de-professores(1).svg"
   inkscape:version="0.92.3 (2405546, 2018-03-11)">
  <metadata
     id="metadata48">
    <rdf:RDF>
      <cc:Work
         rdf:about="">
        <dc:format>image/svg+xml</dc:format>
        <dc:type
           rdf:resource="http://purl.org/dc/dcmitype/StillImage" />
        <dc:title></dc:title>
      </cc:Work>
    </rdf:RDF>
  </metadata>
  <defs
     id="defs46" />
  <sodipodi:namedview
     pagecolor="#ffffff"
     bordercolor="#666666"
     borderopacity="1"
     objecttolerance="10"
     gridtolerance="10"
     guidetolerance="10"
     inkscape:pageopacity="0"
     inkscape:pageshadow="2"
     inkscape:window-width="1920"
     inkscape:window-height="1016"
     id="namedview44"
     showgrid="false"
     inkscape:zoom="1.2301277"
     inkscape:cx="152.81358"
     inkscape:cy="121.00657"
     inkscape:window-x="0"
     inkscape:window-y="27"
     inkscape:window-maximized="1"
     inkscape:current-layer="svg42" />
  <g
     id="g911"
     transform="translate(-73.986878,0.37499779)">
    <path
       style="fill:#ed1c24"
       inkscape:connector-curvature="0"
       id="path2"
       d="m 75.4,30.3 c -1,9.6 -0.8,19 -0.2,27.9 8.6,-2 11.9,-0.7 15.1,4.4 3.2,5 6.3,14 14.7,25.8 -7,-22.7 -4.8,-34.6 -0.5,-42.3 4.3,-7.6 10.8,-11 13.1,-16.3 2.4,-5.4 0.5,-12.9 -12,-29.3 1.9,8.6 0.7,11.9 -4.4,15 -5,3.3 -14,6.4 -25.8,14.8 z" />
    <path
       style="fill:#939598"
       inkscape:connector-curvature="0"
       id="path4"
       d="m 105,88.4 c 9.6,1 19,0.8 27.9,0.2 -1.9,-8.7 -0.7,-12 4.4,-15.1 5,-3.2 14,-6.4 25.8,-14.8 -22.7,7 -34.6,4.9 -42.3,0.6 -7.6,-4.3 -11,-10.9 -16.3,-13.2 -5.4,-2.3 -12.8,-0.5 -29.3,12 8.6,-1.8 11.9,-0.6 15.1,4.5 3.2,5 6.3,14 14.7,25.8 z" />
    <path
       style="fill:#ed1c24"
       inkscape:connector-curvature="0"
       id="path6"
       d="m 163.1,58.7 c 1,-9.5 0.8,-19 0.2,-27.8 -8.7,1.9 -12,0.7 -15.1,-4.5 -3.2,-5 -6.4,-14 -14.8,-25.8 7,22.8 4.9,34.7 0.6,42.3 -4.3,7.7 -10.8,11 -13.2,16.4 -2.3,5.4 -0.4,12.8 12,29.3 -1.8,-8.7 -0.6,-12 4.5,-15.1 5,-3.2 14,-6.4 25.8,-14.8 z" />
    <path
       style="fill:#939598"
       inkscape:connector-curvature="0"
       id="path8"
       d="m 133.4,0.6 c -9.5,-0.9 -19,-0.7 -27.8,-0.1 12.5,16.4 14.4,23.9 12,29.3 7.7,4.3 11,10.8 16.4,13.1 5.4,2.3 12.8,0.5 29.3,-12 -8.7,1.9 -12,0.7 -15.1,-4.5 -3.2,-5 -6.4,-14 -14.8,-25.8 z" />
    <path
       style="fill:#ed1c24"
       inkscape:connector-curvature="0"
       id="path10"
       d="m 251,59.5 c 1,-9.6 0.8,-19 0.2,-27.9 -8.6,2 -11.9,0.7 -15.1,-4.4 -3.2,-5 -6.3,-14 -14.7,-25.8 7,22.7 4.8,34.6 0.5,42.3 -4.3,7.6 -10.8,11 -13.1,16.3 -2.4,5.4 -0.5,12.8 12,29.3 -1.9,-8.6 -0.7,-11.9 4.4,-15 5,-3.3 14,-6.4 25.8,-14.8 z" />
    <path
       style="fill:#939598"
       inkscape:connector-curvature="0"
       id="path12"
       d="m 221.4,1.4 c -9.6,-1 -19,-0.8 -27.9,-0.2 1.9,8.7 0.7,12 -4.4,15.1 -5,3.2 -14,6.4 -25.8,14.8 22.7,-7 34.6,-4.9 42.3,-0.6 7.6,4.3 11,10.9 16.3,13.2 5.4,2.3 12.8,0.4 29.3,-12 -8.6,1.8 -11.9,0.6 -15.1,-4.5 -3.2,-5 -6.3,-14 -14.7,-25.8 z" />
    <path
       style="fill:#ed1c24"
       inkscape:connector-curvature="0"
       id="path14"
       d="m 163.3,31 c -1,9.6 -0.8,19.1 -0.2,27.9 8.7,-1.9 12,-0.7 15.1,4.5 3.2,5 6.3,14 14.8,25.7 -7,-22.7 -4.9,-34.6 -0.6,-42.2 4.3,-7.7 10.8,-11 13.2,-16.4 2.3,-5.4 0.4,-12.8 -12,-29.3 1.8,8.7 0.6,12 -4.5,15.1 -5,3.2 -14,6.4 -25.8,14.8 z" />
    <path
       style="fill:#939598"
       inkscape:connector-curvature="0"
       id="path16"
       d="m 193,89.1 c 9.5,1 19,0.8 27.8,0.2 -12.5,-16.5 -14.4,-23.9 -12,-29.3 -7.7,-4.3 -11,-10.8 -16.4,-13.1 -5.4,-2.3 -12.8,-0.5 -29.3,12 8.7,-1.9 12,-0.7 15.1,4.5 3.2,5 6.3,14 14.8,25.7 z" />
    <path
       style="fill:#ed1c24"
       inkscape:connector-curvature="0"
       id="path18"
       d="m 74.6,118.2 c -0.9,9.5 -0.7,19 -0.1,27.8 8.6,-1.9 11.9,-0.7 15,4.4 3.3,5 6.4,14 14.8,25.8 -7,-22.7 -4.8,-34.6 -0.5,-42.2 4.3,-7.7 10.8,-11 13.1,-16.4 2.3,-5.4 0.5,-12.8 -12,-29.3 1.8,8.7 0.6,12 -4.5,15.1 -5,3.2 -14,6.4 -25.8,14.8 z" />
    <path
       style="fill:#939598"
       inkscape:connector-curvature="0"
       id="path20"
       d="m 104.3,176.2 c 9.5,1 19,0.8 27.8,0.2 -1.8,-8.6 -0.6,-11.9 4.5,-15.1 5,-3.2 14,-6.3 25.8,-14.7 -22.7,7 -34.6,4.8 -42.3,0.5 -7.6,-4.3 -11,-10.8 -16.3,-13.1 -5.5,-2.3 -12.9,-0.5 -29.3,12 8.6,-1.9 11.9,-0.7 15,4.4 3.3,5 6.4,14 14.8,25.8 z" />
    <path
       style="fill:#ed1c24"
       inkscape:connector-curvature="0"
       id="path22"
       d="m 162.4,146.6 c 1,-9.6 0.7,-19 0.2,-27.9 -8.7,1.9 -12,0.7 -15.1,-4.4 -3.2,-5 -6.4,-14 -14.8,-25.8 7,22.7 4.9,34.6 0.6,42.3 -4.4,7.6 -10.9,11 -13.2,16.3 -2.3,5.4 -0.5,12.8 12,29.3 -1.8,-8.6 -0.6,-11.9 4.5,-15.1 5,-3.2 14,-6.3 25.8,-14.7 z" />
    <path
       style="fill:#939598"
       inkscape:connector-curvature="0"
       id="path24"
       d="m 132.7,88.5 c -9.5,-1 -19,-0.8 -27.8,-0.2 12.5,16.5 14.3,23.9 12,29.3 7.7,4.3 11,10.8 16.4,13.2 5.4,2.3 12.8,0.4 29.3,-12 -8.7,1.8 -12,0.6 -15.1,-4.5 -3.2,-5 -6.4,-14 -14.8,-25.8 z" />
    <path
       style="fill:#ed1c24"
       inkscape:connector-curvature="0"
       id="path26"
       d="m 250.3,147.3 c 1,-9.5 0.8,-19 0.2,-27.8 -8.7,1.8 -12,0.6 -15.1,-4.5 -3.2,-5 -6.4,-14 -14.8,-25.8 7,22.7 4.9,34.7 0.6,42.3 -4.3,7.6 -10.9,11 -13.2,16.4 -2.3,5.4 -0.5,12.8 12,29.3 -1.8,-8.7 -0.6,-12 4.5,-15.2 5,-3.2 14,-6.3 25.8,-14.7 z" />
    <path
       style="fill:#939598"
       inkscape:connector-curvature="0"
       id="path28"
       d="m 220.6,89.2 c -9.5,-0.9 -19,-0.7 -27.8,-0.2 1.9,8.7 0.7,12 -4.5,15.2 -5,3.2 -14,6.3 -25.8,14.7 22.8,-7 34.7,-4.8 42.3,-0.5 7.7,4.3 11,10.8 16.4,13.1 5.4,2.3 12.8,0.5 29.3,-12 -8.7,1.8 -12,0.6 -15.1,-4.5 -3.2,-5 -6.4,-14 -14.8,-25.8 z" />
    <path
       style="fill:#ed1c24"
       inkscape:connector-curvature="0"
       id="path30"
       d="m 162.5,119 c -0.9,9.4 -0.7,19 -0.1,27.7 8.6,-1.8 11.9,-0.6 15,4.5 3.3,5 6.4,14 14.8,25.8 -7,-22.7 -4.8,-34.7 -0.5,-42.3 4.3,-7.6 10.8,-11 13.1,-16.3 2.3,-5.5 0.5,-12.9 -12,-29.4 1.9,8.7 0.7,12 -4.5,15.2 -5,3.2 -14,6.3 -25.8,14.7 z" />
    <path
       style="fill:#939598"
       inkscape:connector-curvature="0"
       id="path32"
       d="m 192.2,177 c 9.6,0.9 19,0.7 27.9,0.2 -12.6,-16.5 -14.4,-24 -12,-29.3 -7.7,-4.4 -11,-10.9 -16.4,-13.2 -5.4,-2.3 -12.9,-0.5 -29.3,12 8.6,-1.8 11.9,-0.6 15,4.5 3.3,5 6.4,14 14.8,25.8 z" />
  </g>
</svg>
